<svg width="219" height="224" viewBox="0 0 219 224" fill="none" xmlns="http://www.w3.org/2000/svg">
<path d="M5.17027 75.4076C5.15727 76.4912 5.5451 77.5415 6.25927 78.3566C6.78229 79.0083 7.15422 79.7679 7.34827 80.5806C7.48427 81.8516 8.16527 82.1686 9.20827 82.3956C9.7856 82.4774 10.326 82.7277 10.7618 83.1151C11.1976 83.5025 11.5094 84.0098 11.6583 84.5736C11.9763 85.7536 12.6113 86.0736 13.7913 85.6176C16.1053 84.7556 18.4193 83.8026 20.7343 82.8946C20.6893 83.1666 20.5983 83.5756 20.5523 83.9836C20.3057 85.5907 20.1694 87.2129 20.1443 88.8386C20.1198 89.1947 20.1705 89.5521 20.2929 89.8874C20.4152 90.2228 20.6067 90.5287 20.8548 90.7853C21.1029 91.042 21.4021 91.2438 21.7331 91.3775C22.0641 91.5112 22.4195 91.5739 22.7763 91.5616C25.7713 91.5616 28.7203 91.5166 31.7153 91.4256C32.4228 91.4193 33.1209 91.2622 33.7628 90.9647C34.4048 90.6673 34.976 90.2363 35.4383 89.7006C35.5743 89.5646 35.7563 89.3376 35.8923 89.3826C37.6623 89.7006 38.6153 88.4746 39.7043 87.4316C40.2698 86.8167 40.9567 86.3258 41.7216 85.99C42.4866 85.6542 43.3129 85.4807 44.1483 85.4806C45.3699 85.4135 46.584 85.2463 47.7783 84.9806C47.8996 85.137 48.006 85.3044 48.0963 85.4806C48.4582 85.8979 48.6685 86.4252 48.6932 86.9769C48.7179 87.5287 48.5555 88.0727 48.2323 88.5206C47.9886 89.282 47.9112 90.0868 48.0053 90.8806C48.0441 91.4871 48.0135 92.096 47.9143 92.6956C47.6101 93.5042 47.6262 94.3985 47.9593 95.1956C48.9784 97.3056 50.4687 99.1531 52.3153 100.596C52.7713 100.987 53.3114 101.269 53.8937 101.418C54.476 101.568 55.0849 101.581 55.6733 101.458C56.1417 101.466 56.598 101.608 56.9893 101.866C57.5343 102.184 57.9423 102.819 58.4893 102.955C59.2207 103.136 59.8733 103.55 60.3493 104.135C60.6376 104.554 61.0356 104.885 61.4998 105.094C61.964 105.302 62.4765 105.378 62.9813 105.315C63.7983 105.179 64.1613 105.406 64.3883 106.223C64.8883 107.947 65.9313 108.446 67.7003 108.038C68.2698 107.933 68.8579 108.013 69.3793 108.265C70.5133 108.765 71.5573 109.445 72.6463 109.944C72.967 110.053 73.2491 110.252 73.4586 110.519C73.668 110.785 73.7958 111.106 73.8263 111.444C73.9696 112.466 74.0454 113.497 74.0533 114.53C74.0083 115.937 74.1893 117.389 72.9643 118.523C72.7827 118.72 72.6851 118.98 72.6923 119.249C72.702 120.424 73.1748 121.549 74.0083 122.379C75.5554 123.734 77.4948 124.561 79.5443 124.739C80.4523 124.83 81.4043 124.739 82.3573 124.784C83.5823 124.83 83.9913 125.419 83.6733 126.554C83.5874 126.848 83.4811 127.136 83.3553 127.416C82.1753 129.816 82.9013 131.409 85.3973 132.18C85.8973 132.361 86.6223 132.906 86.6223 133.269C86.7133 135.175 87.5303 137.217 86.0323 138.987C85.8292 139.166 85.6867 139.404 85.6243 139.668C85.4612 140.165 85.4298 140.696 85.5333 141.21C85.6535 141.388 85.7099 141.601 85.6934 141.815C85.6769 142.03 85.5884 142.232 85.4423 142.39C84.7428 143.243 84.316 144.286 84.2173 145.385C84.0813 147.785 83.7633 150.195 83.5823 152.6C83.484 153.792 83.4536 154.988 83.4913 156.184C83.4796 156.66 83.6305 157.127 83.9191 157.506C84.2077 157.886 84.6169 158.155 85.0793 158.272C86.4375 158.557 87.8204 158.709 89.2083 158.726C90.067 158.722 90.916 158.907 91.6947 159.269C92.4735 159.631 93.1627 160.161 93.7131 160.82C94.2636 161.479 94.6618 162.251 94.8793 163.082C95.0968 163.913 95.1282 164.781 94.9713 165.626C94.8266 166.619 94.7961 167.625 94.8803 168.626C94.9253 169.897 95.3343 170.168 96.6043 169.941C97.1943 169.851 97.7843 169.669 98.3743 169.624C98.6868 169.566 99.0087 169.584 99.3127 169.677C99.6167 169.77 99.8939 169.934 100.121 170.157C100.348 170.379 100.518 170.653 100.617 170.955C100.715 171.258 100.74 171.579 100.688 171.893C100.524 173.545 100.174 175.174 99.6443 176.748C99.0543 178.473 98.9183 178.427 100.415 179.471C101.11 179.92 101.657 180.564 101.988 181.323C102.319 182.081 102.419 182.921 102.275 183.736C102.139 184.916 101.821 186.051 101.775 187.23C101.752 187.981 101.482 188.705 101.006 189.287C100.53 189.87 99.8754 190.279 99.1433 190.452C95.4683 191.586 92.6543 193.901 89.9323 196.397C88.2533 197.939 86.8013 199.664 85.2583 201.343C85.0616 201.489 84.8981 201.675 84.7786 201.889C84.6591 202.104 84.5863 202.34 84.5648 202.585C84.5434 202.829 84.5739 203.075 84.6542 203.307C84.7346 203.538 84.8631 203.75 85.0313 203.929C85.2012 204.248 85.3986 204.552 85.6213 204.837C86.7103 206.244 88.1213 207.423 87.6633 209.556C87.4813 210.418 88.1173 210.827 88.9793 210.556C89.3414 210.454 89.6808 210.284 89.9793 210.056C90.1126 209.95 90.2669 209.874 90.4318 209.833C90.5967 209.791 90.7686 209.786 90.9359 209.816C91.1033 209.846 91.2624 209.911 91.4026 210.007C91.5428 210.103 91.661 210.228 91.7493 210.374C93.4919 212.556 95.5046 214.507 97.7393 216.182C98.2435 216.508 98.6763 216.933 99.0116 217.432C99.3469 217.93 99.5778 218.491 99.6903 219.082C99.8263 220.126 100.461 220.216 101.278 220.126C102.057 219.998 102.83 219.831 103.592 219.626C104.092 220.67 104.863 220.806 105.592 219.898C105.951 219.51 106.215 219.044 106.363 218.537C106.82 216.551 107.864 214.749 109.358 213.364C110.858 211.957 112.171 210.369 113.623 208.781C113.714 208.872 113.895 208.962 114.031 209.099C114.223 209.375 114.485 209.596 114.789 209.74C115.094 209.883 115.431 209.944 115.766 209.917C116.102 209.889 116.424 209.774 116.701 209.582C116.978 209.391 117.2 209.13 117.344 208.826C117.867 208.009 118.337 207.161 118.751 206.285C119.459 204.809 120.538 203.543 121.882 202.61C123.135 201.683 124.159 200.481 124.875 199.097C125.591 197.712 125.98 196.182 126.011 194.624C126.238 192.99 126.329 191.312 126.511 189.678C126.557 189.043 126.693 188.407 126.784 187.817C127.102 185.775 128.826 184.187 128.553 181.917C129.007 182.144 129.324 182.371 129.687 182.552C129.814 182.634 129.958 182.686 130.108 182.702C130.258 182.719 130.41 182.7 130.551 182.647C130.693 182.594 130.82 182.508 130.922 182.397C131.024 182.286 131.098 182.152 131.139 182.007C131.489 181.278 132.003 180.641 132.641 180.145C133.279 179.649 134.023 179.307 134.815 179.148C136.006 178.768 137.114 178.168 138.082 177.378C138.596 176.832 139.215 176.394 139.9 176.09C140.586 175.786 141.325 175.622 142.075 175.608C143.261 175.725 144.458 175.57 145.575 175.154C146.691 174.738 147.698 174.072 148.518 173.208C149.078 172.446 149.914 171.933 150.847 171.781C151.78 171.628 152.736 171.847 153.509 172.391C154.74 173.017 156.143 173.224 157.502 172.981C160.148 172.521 162.65 171.449 164.808 169.851C166.591 168.712 168.034 167.113 168.983 165.223C169.246 164.568 169.638 163.974 170.136 163.476C170.635 162.977 171.229 162.585 171.883 162.323C172.333 162.179 172.749 161.948 173.108 161.642C174.878 159.509 176.648 157.331 178.372 155.108C179.234 153.974 178.826 152.608 178.917 151.341C178.962 150.161 179.098 148.891 180.142 148.211C181.786 146.988 182.995 145.271 183.591 143.311C183.834 142.497 183.987 141.658 184.045 140.811C183.999 140.674 184.317 140.584 184.363 140.448C184.547 139.885 184.683 139.309 184.771 138.724C185.089 137.09 185.406 135.502 185.679 133.869C185.997 131.918 186.269 129.969 186.541 128.016C186.813 126.201 186.904 124.386 187.267 122.571C187.343 121.936 187.596 121.335 187.997 120.838C188.398 120.34 188.932 119.966 189.536 119.758C191.557 119.17 193.395 118.079 194.879 116.587C196.363 115.095 197.444 113.25 198.021 111.227C198.231 110.317 198.72 109.496 199.419 108.878C200.118 108.259 200.993 107.875 201.921 107.778C204.236 107.37 206.368 106.553 207.73 104.466C208.024 103.845 208.373 103.253 208.774 102.696C209.954 101.425 211.224 100.246 212.449 99.0206C213.855 97.7702 214.881 96.1503 215.412 94.3453C215.942 92.5403 215.955 90.6226 215.449 88.8106C215.122 87.4482 214.865 86.0701 214.678 84.6816C214.612 83.5247 214.476 82.373 214.27 81.2326C213.544 78.8326 212.183 76.9216 209.415 76.4686C208.644 76.3326 207.915 76.1056 207.146 76.0146C205.534 75.8024 204.061 74.9926 203.017 73.7456C201.202 71.4316 199.432 69.0266 197.753 66.6216C196.664 65.0786 195.847 63.3996 193.623 63.2216C193.351 63.2216 193.033 62.8136 192.852 62.4956C192.453 61.7582 191.873 61.1341 191.167 60.6819C190.461 60.2296 189.651 59.9639 188.814 59.9096C187.864 59.7568 186.894 59.7876 185.955 60.0006C183.455 60.8176 181.191 60.0916 178.967 59.2296C178.039 58.8973 177.2 58.3537 176.517 57.6416C175.75 56.841 174.721 56.3419 173.617 56.2346C171.582 56.0397 169.532 56.3847 167.672 57.2346C166.719 57.5976 165.721 57.9606 164.632 58.3236C165.132 56.3726 165.585 54.6026 166.084 52.8336C166.311 51.9716 166.221 51.5176 165.313 51.1546C163.966 50.5333 162.663 49.8206 161.413 49.0216C160.778 48.6136 160.279 48.0216 159.598 47.6146C157.184 46.2253 154.544 45.273 151.798 44.8016C150.328 44.4544 148.798 44.4413 147.322 44.7632C145.845 45.085 144.46 45.7338 143.267 46.6616C141.996 47.6616 140.726 48.6126 139.501 49.5206C139.113 48.6017 138.524 47.7816 137.777 47.1206C138.261 47.064 138.734 46.9419 139.184 46.7576C140.094 46.42 140.962 45.9784 141.77 45.4416C143.158 44.4097 144.477 43.288 145.718 42.0836C146.444 41.3576 146.263 40.7676 145.31 40.3136C142.698 39.0957 139.843 38.4903 136.961 38.5436C135.694 38.5953 134.466 39.0044 133.421 39.7236C132.332 40.4046 131.379 41.2236 130.245 41.8566C129.782 42.1813 129.257 42.409 128.704 42.5261C128.15 42.6431 127.578 42.647 127.023 42.5376C127.328 41.7051 127.708 40.9018 128.157 40.1376C130.167 37.3599 132.771 35.0655 135.78 33.4216C136.642 32.9676 137.368 32.3776 137.187 31.2436C137.117 30.8936 137.158 30.5303 137.304 30.2048C137.451 29.8792 137.695 29.6078 138.004 29.4286C138.504 29.0656 138.957 28.6576 139.592 28.1126C139.147 27.8268 138.676 27.5837 138.185 27.3866C137.278 27.1472 136.385 26.8595 135.508 26.5246C135.225 26.3894 134.971 26.1995 134.76 25.966C134.55 25.7325 134.388 25.4598 134.283 25.1636C134.01 24.1196 134.101 22.9856 133.829 21.8966C133.284 19.3966 132.604 16.9056 132.014 14.6366C131.831 14.4793 131.616 14.364 131.384 14.2987C131.151 14.2334 130.907 14.2197 130.669 14.2586C130.431 14.2975 130.204 14.388 130.005 14.5238C129.805 14.6595 129.638 14.8373 129.514 15.0446C128.879 15.7256 128.153 16.3156 127.563 17.0446C127.253 17.4268 127.107 17.9159 127.155 18.4056C127.336 19.7666 127.336 19.9936 126.066 20.3116C125.563 20.4316 125.098 20.6784 124.717 21.0284C124.336 21.3785 124.051 21.8202 123.888 22.3116C123.764 22.6395 123.557 22.9292 123.286 23.1522C123.016 23.3751 122.692 23.5235 122.346 23.5826C120.344 23.9982 118.28 24.0291 116.266 23.6736C114.724 23.4466 113.317 23.0836 112.409 21.6736C112.298 21.5163 112.156 21.3831 111.993 21.2817C111.829 21.1803 111.647 21.113 111.456 21.0836C110.14 20.8566 108.824 20.7206 107.508 20.4936C107.11 20.3911 106.689 20.4301 106.316 20.604C105.944 20.7778 105.643 21.0757 105.466 21.4466C104.513 22.9896 102.244 24.7136 99.7493 23.7156C98.1526 23.1708 96.4132 23.219 94.8493 23.8516C93.3053 24.3415 91.7283 24.7205 90.1303 24.9856C89.5747 25.125 88.9932 25.1233 88.4385 24.9806C87.8838 24.8379 87.3736 24.5588 86.9543 24.1686C85.0342 22.4051 83.825 20.0005 83.5543 17.4076C83.4011 15.2976 84.0131 13.2031 85.2783 11.5076C86.5033 9.6476 86.4583 9.4206 84.7783 8.1076C84.3954 7.86214 84.1008 7.50087 83.9375 7.0764C83.7742 6.65192 83.7506 6.1864 83.8703 5.7476C83.9613 5.3396 84.2333 4.9306 84.1423 4.6136C84.1229 4.35268 84.0512 4.09833 83.9315 3.86571C83.8117 3.63308 83.6464 3.42695 83.4453 3.2596C82.4013 2.7146 81.5853 3.0326 80.7683 4.1676C79.6383 5.6646 78.6383 7.3436 76.5933 7.6606C75.1413 7.8876 73.6443 8.0236 72.1463 8.1606C71.7833 8.2056 71.4203 8.0696 71.0573 8.1156C70.565 8.17192 70.0963 8.3567 69.698 8.6514C69.2998 8.9461 68.986 9.34035 68.7883 9.7946C67.8383 11.3816 67.4283 11.4266 66.0663 10.1566C65.9303 10.0656 65.8393 9.8846 65.7033 9.8386C64.4783 9.2036 63.3033 8.5676 62.0733 8.0686C61.8434 8.04134 61.6105 8.07293 61.3962 8.16039C61.1819 8.24784 60.9934 8.38831 60.8483 8.5686C60.4889 9.1191 60.2574 9.74314 60.1709 10.3949C60.0843 11.0466 60.145 11.7094 60.3483 12.3346C60.5092 13.1739 60.8694 13.9623 61.3984 14.6335C61.9274 15.3046 62.6098 15.839 63.3883 16.1916C63.7208 16.3343 64.0042 16.5715 64.2033 16.8736C64.4024 17.1758 64.5085 17.5297 64.5085 17.8916C64.5085 18.2535 64.4024 18.6074 64.2033 18.9096C64.0042 19.2117 63.7208 19.4489 63.3883 19.5916C62.9343 19.8636 62.3883 19.9996 61.9363 20.2726C58.8503 22.0426 55.7653 23.8116 52.6793 25.6266C52.4097 25.8134 52.095 25.9246 51.7678 25.9485C51.4407 25.9724 51.1132 25.9082 50.8193 25.7626C50.2923 25.4642 49.6895 25.3267 49.0853 25.367C48.4811 25.4074 47.9019 25.6238 47.4193 25.9896C47.3098 26.056 47.1843 26.0911 47.0563 26.0911C46.9283 26.0911 46.8027 26.056 46.6933 25.9896C45.9675 25.5794 45.3372 25.0195 44.8443 24.3471C44.3514 23.6747 44.0071 22.9052 43.8343 22.0896C43.7779 21.3322 43.4778 20.6135 42.9788 20.041C42.4798 19.4684 41.8088 19.0729 41.0663 18.9136C39.9503 18.7134 38.8003 18.8394 37.7543 19.2766C36.2424 19.7456 34.6418 19.8545 33.0803 19.5946C31.9361 19.4357 30.7754 19.4357 29.6313 19.5946C29.2642 19.6607 28.9302 19.8485 28.683 20.1278C28.4358 20.407 28.2899 20.7614 28.2689 21.1338C28.2479 21.5061 28.3529 21.8747 28.5671 22.18C28.7812 22.4853 29.092 22.7096 29.4493 22.8166C29.9568 22.9752 30.4329 23.2208 30.8563 23.5426C31.2355 23.8652 31.4788 24.3192 31.5373 24.8136C31.5373 25.1316 31.0373 25.5846 30.6753 25.7216C30.1007 25.889 29.5035 25.9656 28.9053 25.9486C26.7723 26.0396 25.7743 27.3556 26.6363 29.3066C27.2045 30.5487 27.937 31.7087 28.8143 32.7556C30.4023 34.7976 30.5843 36.7036 29.1323 38.7906C28.3153 39.9706 27.5443 41.1906 27.9983 42.7836C28.0555 43.1477 27.9746 43.5201 27.7713 43.8276C27.0807 45.1755 26.7227 46.6691 26.7273 48.1836C26.7016 48.5743 26.6096 48.9578 26.4553 49.3176C26.1446 50.1087 25.9164 50.9297 25.7743 51.7676C25.6383 53.7676 24.7743 54.4906 22.9153 53.9006C22.1085 53.6268 21.2514 53.5337 20.4046 53.6279C19.5579 53.7221 18.7422 54.0012 18.0153 54.4456C17.4239 54.6833 16.7927 54.8065 16.1553 54.8086C15.4105 54.7756 14.6683 54.6998 13.9323 54.5816C13.8628 55.0046 13.6481 55.39 13.325 55.6717C13.0019 55.9533 12.5907 56.1135 12.1623 56.1246C11.9441 56.1845 11.7423 56.2933 11.5723 56.4426C8.67227 58.4426 7.62427 61.5246 6.85327 64.7426C6.62627 65.6046 6.58127 66.4216 5.53727 66.9206C4.82452 67.3382 4.23091 67.9319 3.81327 68.6446C3.25914 69.2726 2.96876 70.0903 3.00267 70.9271C3.03657 71.764 3.39215 72.5555 3.99527 73.1366C4.40432 73.3444 4.73779 73.6753 4.94862 74.0828C5.15944 74.4903 5.23697 74.9537 5.17027 75.4076V75.4076Z" stroke="#bf78ce" stroke-width="5"/>
<path d="M110.306 103.879C110.064 103.879 109.825 103.826 109.605 103.724C109.385 103.623 109.19 103.474 109.033 103.29L94.9762 86.7797C93.7734 85.4159 92.8251 83.8474 92.1762 82.1487C91.0842 79.2209 90.7185 76.0718 91.1103 72.9717C91.5022 69.8715 92.64 66.9126 94.4262 64.3486C96.2042 61.781 98.5781 59.6827 101.345 58.2334C104.111 56.7841 107.188 56.027 110.311 56.027C113.434 56.027 116.51 56.7841 119.277 58.2334C122.043 59.6827 124.417 61.781 126.195 64.3486C127.983 66.9151 129.121 69.877 129.512 72.9801C129.903 76.0832 129.536 79.2348 128.441 82.1647C127.788 83.8609 126.838 85.4272 125.635 86.7897L111.585 103.29C111.428 103.474 111.233 103.622 111.012 103.724C110.792 103.826 110.553 103.879 110.31 103.879H110.306ZM110.31 59.3696C107.725 59.3501 105.175 59.9675 102.884 61.167C100.594 62.3665 98.6345 64.1114 97.1783 66.2477C95.6984 68.3684 94.7553 70.8166 94.43 73.3821C94.1046 75.9475 94.4066 78.5537 95.3102 80.9767C95.8244 82.3082 96.5732 83.5366 97.5212 84.6036L110.31 99.6246L123.092 84.6136L123.099 84.6036C124.045 83.54 124.793 82.3157 125.307 80.9886C126.213 78.5642 126.516 75.9562 126.191 73.3887C125.866 70.8212 124.922 68.371 123.441 66.2487C121.985 64.1122 120.026 62.3672 117.736 61.1676C115.446 59.968 112.895 59.351 110.31 59.3707" fill="#bf78ce"/>
<path d="M110.307 84.6907C108.454 84.6907 106.642 84.1412 105.102 83.1116C103.561 82.082 102.36 80.6185 101.651 78.9064C100.941 77.1942 100.756 75.3103 101.117 73.4927C101.479 71.6751 102.371 70.0055 103.682 68.6951C104.992 67.3846 106.662 66.4923 108.479 66.1307C110.297 65.7692 112.181 65.9547 113.893 66.6639C115.605 67.3731 117.069 68.5741 118.098 70.115C119.128 71.6559 119.677 73.4675 119.677 75.3207C119.675 77.8049 118.687 80.1867 116.93 81.9434C115.173 83.7 112.792 84.688 110.307 84.6907V84.6907ZM110.307 69.2966C109.116 69.2964 107.951 69.6496 106.96 70.3114C105.969 70.9732 105.197 71.9139 104.741 73.0146C104.285 74.1154 104.166 75.3266 104.398 76.4952C104.63 77.6638 105.204 78.7374 106.046 79.5799C106.889 80.4225 107.962 80.9964 109.131 81.2289C110.299 81.4614 111.511 81.3421 112.611 80.8862C113.712 80.4303 114.653 79.6581 115.315 78.6675C115.977 77.6768 116.33 76.5121 116.33 75.3207C116.329 73.7237 115.694 72.1925 114.564 71.0631C113.435 69.9338 111.904 69.2985 110.307 69.2966" fill="#bf78ce"/>
</svg>
