<svg width="1946" height="1713" viewBox="0 0 1946 1713" fill="none" xmlns="http://www.w3.org/2000/svg">
<path opacity="0.4" fill-rule="evenodd" clip-rule="evenodd" d="M931.588 40.6025C838.768 -12.9873 724.408 -12.9873 631.588 40.6025L150 318.647C57.1797 372.237 0 471.275 0 578.455V1134.54C0 1241.72 57.1797 1340.76 150 1394.35L631.588 1672.4C724.408 1725.99 838.768 1725.99 931.588 1672.4L1413.18 1394.35C1506 1340.76 1563.18 1241.72 1563.18 1134.54V578.455C1563.18 471.275 1506 372.237 1413.18 318.647L931.588 40.6025ZM931.588 200.603C838.768 147.013 724.408 147.013 631.588 200.603L288.564 398.647C195.744 452.237 138.564 551.275 138.564 658.455V1054.54C138.564 1161.72 195.744 1260.76 288.564 1314.35L631.588 1512.4C724.408 1565.99 838.768 1565.99 931.588 1512.4L1274.61 1314.35C1367.43 1260.76 1424.61 1161.72 1424.61 1054.54V658.455C1424.61 551.275 1367.43 452.237 1274.61 398.647L931.588 200.603Z" fill="url(#paint0_linear_83_102)"/>
<path opacity="0.4" fill-rule="evenodd" clip-rule="evenodd" d="M1790.74 1171.81C1768.06 1158.73 1740.11 1158.73 1717.43 1171.81L1599.74 1239.69C1577.06 1252.78 1563.09 1276.95 1563.09 1303.12V1438.88C1563.09 1465.05 1577.06 1489.22 1599.74 1502.31L1717.43 1570.19C1740.11 1583.27 1768.06 1583.27 1790.74 1570.19L1908.43 1502.31C1931.11 1489.22 1945.09 1465.05 1945.09 1438.88V1303.12C1945.09 1276.95 1931.11 1252.78 1908.43 1239.69L1790.74 1171.81ZM1790.74 1210.87C1768.06 1197.79 1740.11 1197.79 1717.43 1210.87L1633.6 1259.22C1610.92 1272.31 1596.95 1296.48 1596.95 1322.65V1419.35C1596.95 1445.52 1610.92 1469.69 1633.6 1482.78L1717.43 1531.13C1740.11 1544.21 1768.06 1544.21 1790.74 1531.13L1874.57 1482.78C1897.25 1469.69 1911.22 1445.52 1911.22 1419.35V1322.65C1911.22 1296.48 1897.25 1272.31 1874.57 1259.22L1790.74 1210.87Z" fill="url(#paint1_linear_83_102)"/>
<path opacity="0.4" fill-rule="evenodd" clip-rule="evenodd" d="M1477.43 1469.45C1464.84 1462.18 1449.33 1462.18 1436.74 1469.45L1371.43 1507.12C1358.84 1514.38 1351.09 1527.8 1351.09 1542.32V1617.68C1351.09 1632.2 1358.84 1645.62 1371.43 1652.88L1436.74 1690.55C1449.33 1697.82 1464.84 1697.82 1477.43 1690.55L1542.74 1652.88C1555.33 1645.62 1563.09 1632.2 1563.09 1617.68V1542.32C1563.09 1527.8 1555.33 1514.38 1542.74 1507.12L1477.43 1469.45ZM1477.43 1491.13C1464.84 1483.86 1449.33 1483.86 1436.74 1491.13L1390.22 1517.96C1377.63 1525.22 1369.88 1538.64 1369.88 1553.16V1606.84C1369.88 1621.36 1377.63 1634.78 1390.22 1642.04L1436.74 1668.87C1449.33 1676.14 1464.84 1676.14 1477.43 1668.87L1523.95 1642.04C1536.54 1634.78 1544.29 1621.36 1544.29 1606.84V1553.16C1544.29 1538.64 1536.54 1525.22 1523.95 1517.96L1477.43 1491.13Z" fill="url(#paint2_linear_83_102)"/>
<path d="M874.088 506H574.088C408.402 506 274.088 371.685 274.088 206C274.088 178.386 296.474 156 324.088 156L874.088 156C939.749 156 1004.77 168.933 1065.43 194.06C1126.09 219.188 1181.21 256.017 1227.64 302.447C1274.07 348.876 1310.9 403.996 1336.03 464.658C1361.16 525.321 1374.09 590.339 1374.09 656C1374.09 721.661 1361.16 786.679 1336.03 847.342C1310.9 908.005 1274.07 963.124 1227.64 1009.55C1181.21 1055.98 1126.09 1092.81 1065.43 1117.94C1004.77 1143.07 939.749 1156 874.088 1156H274.088L274.088 1106C274.088 940.315 408.402 806 574.088 806H874.088C893.786 806 913.292 802.12 931.49 794.582C949.689 787.044 966.225 775.995 980.154 762.066C994.083 748.137 1005.13 731.601 1012.67 713.403C1020.21 695.204 1024.09 675.698 1024.09 656C1024.09 636.302 1020.21 616.796 1012.67 598.598C1005.13 580.399 994.083 563.863 980.154 549.934C966.225 536.005 949.689 524.956 931.49 517.418C913.292 509.88 893.786 506 874.088 506Z" fill="url(#paint3_linear_83_102)"/>
<path opacity="0.1" d="M665.588 1106C665.588 940.314 711.902 806 877.588 806C711.902 806 614.588 940.314 614.588 1106V1156H665.588V1106Z" fill="black"/>
<path d="M574.088 1556C601.702 1556 624.088 1533.61 624.088 1506L624.088 1105.85C624.167 940.236 712.951 806 878.588 806L574.088 806C408.403 806 274.088 940.315 274.088 1106L274.088 1506C274.088 1533.61 296.474 1556 324.088 1556H574.088Z" fill="url(#paint4_linear_83_102)"/>
<path d="M196.003 1350.9C205.224 1341.7 220.174 1341.7 229.395 1350.9L359.088 1480.34V1514H326.032L196.003 1384.23C186.783 1375.02 186.783 1360.1 196.003 1350.9Z" fill="url(#paint5_linear_83_102)"/>
<path opacity="0.5" fill-rule="evenodd" clip-rule="evenodd" d="M441.937 1475.13C440.603 1478.63 439.589 1484.4 439.589 1492.94C439.589 1497.61 438.637 1502.41 436.794 1506.17C435.03 1509.77 431.87 1513.44 427.089 1513.44C424.077 1513.44 422.133 1511.19 421.084 1509.58C419.911 1507.77 418.999 1505.47 418.3 1503.15C416.896 1498.49 416.089 1492.9 416.089 1488.94C416.089 1483.46 413.125 1481.65 411.613 1481.56C410.836 1481.51 409.981 1481.78 409.223 1482.71C408.421 1483.7 407.589 1485.61 407.589 1488.94C407.589 1500.3 404.938 1509.44 398.455 1514.14C391.796 1518.97 382.691 1518.02 372.556 1513.08C370.818 1512.24 370.096 1510.14 370.942 1508.41C371.789 1506.67 373.884 1505.95 375.622 1506.79C384.986 1511.35 390.882 1510.98 394.347 1508.47C397.989 1505.83 400.589 1499.72 400.589 1488.94C400.589 1484.51 401.694 1480.87 403.799 1478.29C405.946 1475.66 408.967 1474.37 412.064 1474.57C418.302 1474.97 423.089 1480.92 423.089 1488.94C423.089 1492.17 423.782 1497.08 425.002 1501.13C425.615 1503.16 426.297 1504.75 426.953 1505.76C427.162 1506.08 427.323 1506.28 427.433 1506.4C428.191 1506.23 429.342 1505.46 430.508 1503.09C431.79 1500.47 432.589 1496.77 432.589 1492.94C432.589 1483.98 433.637 1477.25 435.397 1472.64C437.031 1468.35 439.928 1464.43 444.392 1464.5C446.548 1464.53 448.381 1465.56 449.785 1466.9C451.181 1468.23 452.317 1470.02 453.213 1472.05C455.009 1476.12 456.089 1481.73 456.089 1488.44C456.089 1497.81 458.553 1502.05 460.788 1504.04C463.062 1506.06 465.851 1506.43 468.03 1506.44C468.083 1506.42 468.21 1506.35 468.422 1506.19C468.872 1505.83 469.432 1505.23 470.148 1504.3C470.706 1503.57 471.258 1502.78 471.877 1501.9C472.051 1501.65 472.231 1501.39 472.417 1501.12C473.231 1499.97 474.149 1498.69 475.159 1497.51C477.105 1495.24 479.904 1492.7 483.791 1492.36C487.763 1492.02 491.651 1494.05 495.564 1497.96C499.979 1502.38 506.114 1506.44 518.089 1506.44C520.64 1506.44 522.22 1505.77 523.384 1504.92C524.651 1504 525.646 1502.7 526.818 1500.97C526.98 1500.73 527.148 1500.48 527.323 1500.21C529.396 1497.08 532.47 1492.44 539.089 1492.44C541.022 1492.44 542.589 1494.01 542.589 1495.94C542.589 1497.87 541.022 1499.44 539.089 1499.44C536.317 1499.44 535.312 1500.92 532.751 1504.7L532.61 1504.9C531.407 1506.68 529.839 1508.88 527.512 1510.58C525.082 1512.35 522.037 1513.44 518.089 1513.44C504.063 1513.44 496.198 1508.5 490.614 1502.91C487.33 1499.63 485.371 1499.25 484.4 1499.34C483.343 1499.43 482.105 1500.17 480.475 1502.07C479.697 1502.98 478.942 1504.01 478.144 1505.15C477.988 1505.37 477.829 1505.6 477.668 1505.83C477.036 1506.74 476.364 1507.7 475.7 1508.56C474.869 1509.64 473.886 1510.8 472.743 1511.69C471.581 1512.6 470.016 1513.44 468.089 1513.44C465.275 1513.44 460.344 1513 456.139 1509.27C451.874 1505.48 449.089 1498.97 449.089 1488.44C449.089 1482.4 448.106 1477.82 446.808 1474.87C446.158 1473.4 445.489 1472.47 444.951 1471.96C444.62 1471.64 444.406 1471.54 444.315 1471.51C444.137 1471.58 443.111 1472.05 441.937 1475.13ZM444.265 1471.5C444.265 1471.5 444.268 1471.5 444.273 1471.5C444.268 1471.5 444.265 1471.5 444.265 1471.5ZM468 1506.45C468 1506.45 468.004 1506.45 468.011 1506.45C468.004 1506.45 468 1506.45 468 1506.45ZM427.602 1506.55C427.602 1506.55 427.596 1506.55 427.582 1506.54C427.596 1506.55 427.602 1506.55 427.602 1506.55Z" fill="#C3CBD6"/>
<rect opacity="0.5" x="310.088" y="1134" width="233" height="15" rx="7.5" fill="#DEE4EB"/>
<rect opacity="0.5" x="310.088" y="1169" width="183" height="15" rx="7.5" fill="#DEE4EB"/>
<rect opacity="0.5" x="310.088" y="1204" width="233" height="15" rx="7.5" fill="#DEE4EB"/>
<rect opacity="0.5" x="310.088" y="1239" width="233" height="15" rx="7.5" fill="#DEE4EB"/>
<rect opacity="0.5" x="310.088" y="1274" width="216" height="15" rx="7.5" fill="#DEE4EB"/>
<rect opacity="0.5" x="310.088" y="1309" width="233" height="15" rx="7.5" fill="#DEE4EB"/>
<rect opacity="0.5" x="310.088" y="1344" width="116" height="15" rx="7.5" fill="#DEE4EB"/>
<defs>
<linearGradient id="paint0_linear_83_102" x1="191.5" y1="191.412" x2="1393.09" y2="1393" gradientUnits="userSpaceOnUse">
<stop stop-color="white" stop-opacity="0"/>
<stop offset="1" stop-color="white"/>
</linearGradient>
<linearGradient id="paint1_linear_83_102" x1="1609.88" y1="1208.63" x2="1903.23" y2="1502.27" gradientUnits="userSpaceOnUse">
<stop stop-color="white" stop-opacity="0"/>
<stop offset="1" stop-color="white"/>
</linearGradient>
<linearGradient id="paint2_linear_83_102" x1="1377.06" y1="1489.88" x2="1539.87" y2="1652.84" gradientUnits="userSpaceOnUse">
<stop stop-color="white" stop-opacity="0"/>
<stop offset="1" stop-color="white"/>
</linearGradient>
<linearGradient id="paint3_linear_83_102" x1="824.088" y1="156" x2="824.088" y2="1156" gradientUnits="userSpaceOnUse">
<stop stop-color="#F8FBFF"/>
<stop offset="1" stop-color="#708EB3"/>
</linearGradient>
<linearGradient id="paint4_linear_83_102" x1="-158.412" y1="1653.5" x2="798.826" y2="1355.35" gradientUnits="userSpaceOnUse">
<stop stop-color="#25127E"/>
<stop offset="1" stop-color="#BF78CE"/>
</linearGradient>
<linearGradient id="paint5_linear_83_102" x1="274.088" y1="1344" x2="274.088" y2="1514" gradientUnits="userSpaceOnUse">
<stop stop-color="#F8FBFF"/>
<stop offset="1" stop-color="#708EB3"/>
</linearGradient>
</defs>
</svg>
