<svg width="1946" height="1713" viewBox="0 0 1946 1713" fill="none" xmlns="http://www.w3.org/2000/svg">
<path opacity="0.4" fill-rule="evenodd" clip-rule="evenodd" d="M931.588 40.1924C838.768 -13.3975 724.408 -13.3975 631.588 40.1924L150 318.237C57.1797 371.827 0 470.865 0 578.045V1134.13C0 1241.31 57.1797 1340.35 150 1393.94L631.588 1671.99C724.408 1725.58 838.768 1725.58 931.588 1671.99L1413.18 1393.94C1506 1340.35 1563.18 1241.31 1563.18 1134.13V578.045C1563.18 470.865 1506 371.827 1413.18 318.237L931.588 40.1924ZM931.588 200.192C838.768 146.603 724.408 146.603 631.588 200.192L288.564 398.237C195.744 451.827 138.564 550.865 138.564 658.045V1054.13C138.564 1161.31 195.744 1260.35 288.564 1313.94L631.588 1511.99C724.408 1565.58 838.768 1565.58 931.588 1511.99L1274.61 1313.94C1367.43 1260.35 1424.61 1161.31 1424.61 1054.13V658.045C1424.61 550.865 1367.43 451.827 1274.61 398.237L931.588 200.192Z" fill="url(#paint0_linear_83_103)"/>
<path opacity="0.4" fill-rule="evenodd" clip-rule="evenodd" d="M1790.74 1171.4C1768.06 1158.32 1740.11 1158.32 1717.43 1171.4L1599.74 1239.28C1577.06 1252.37 1563.09 1276.54 1563.09 1302.71V1438.47C1563.09 1464.64 1577.06 1488.81 1599.74 1501.9L1717.43 1569.78C1740.11 1582.86 1768.06 1582.86 1790.74 1569.78L1908.43 1501.9C1931.11 1488.81 1945.09 1464.64 1945.09 1438.47V1302.71C1945.09 1276.54 1931.11 1252.37 1908.43 1239.28L1790.74 1171.4ZM1790.74 1210.46C1768.06 1197.38 1740.11 1197.38 1717.43 1210.46L1633.6 1258.81C1610.92 1271.9 1596.95 1296.07 1596.95 1322.24V1418.94C1596.95 1445.11 1610.92 1469.28 1633.6 1482.37L1717.43 1530.72C1740.11 1543.8 1768.06 1543.8 1790.74 1530.72L1874.57 1482.37C1897.25 1469.28 1911.22 1445.11 1911.22 1418.94V1322.24C1911.22 1296.07 1897.25 1271.9 1874.57 1258.81L1790.74 1210.46Z" fill="url(#paint1_linear_83_103)"/>
<path opacity="0.4" fill-rule="evenodd" clip-rule="evenodd" d="M1477.43 1469.04C1464.84 1461.77 1449.33 1461.77 1436.74 1469.04L1371.43 1506.71C1358.84 1513.97 1351.09 1527.39 1351.09 1541.91V1617.26C1351.09 1631.79 1358.84 1645.21 1371.43 1652.47L1436.74 1690.14C1449.33 1697.41 1464.84 1697.41 1477.43 1690.14L1542.74 1652.47C1555.33 1645.21 1563.09 1631.79 1563.09 1617.26V1541.91C1563.09 1527.39 1555.33 1513.97 1542.74 1506.71L1477.43 1469.04ZM1477.43 1490.72C1464.84 1483.45 1449.33 1483.45 1436.74 1490.72L1390.22 1517.55C1377.63 1524.81 1369.88 1538.23 1369.88 1552.75V1606.42C1369.88 1620.95 1377.63 1634.37 1390.22 1641.63L1436.74 1668.46C1449.33 1675.73 1464.84 1675.73 1477.43 1668.46L1523.95 1641.63C1536.54 1634.37 1544.29 1620.95 1544.29 1606.42V1552.75C1544.29 1538.23 1536.54 1524.81 1523.95 1517.55L1477.43 1490.72Z" fill="url(#paint2_linear_83_103)"/>
<path d="M874.088 505.59H574.088C408.402 505.59 274.088 371.275 274.088 205.59C274.088 177.976 296.474 155.59 324.088 155.59L874.088 155.59C939.749 155.59 1004.77 168.523 1065.43 193.65C1126.09 218.777 1181.21 255.607 1227.64 302.037C1274.07 348.466 1310.9 403.585 1336.03 464.248C1361.16 524.911 1374.09 589.929 1374.09 655.59C1374.09 721.251 1361.16 786.269 1336.03 846.932C1310.9 907.594 1274.07 962.714 1227.64 1009.14C1181.21 1055.57 1126.09 1092.4 1065.43 1117.53C1004.77 1142.66 939.749 1155.59 874.088 1155.59H274.088L274.088 1105.59C274.088 939.904 408.402 805.59 574.088 805.59H874.088C893.786 805.59 913.292 801.71 931.49 794.172C949.689 786.634 966.225 775.585 980.154 761.656C994.083 747.727 1005.13 731.191 1012.67 712.992C1020.21 694.794 1024.09 675.288 1024.09 655.59C1024.09 635.892 1020.21 616.386 1012.67 598.187C1005.13 579.989 994.083 563.453 980.154 549.524C966.225 535.595 949.689 524.546 931.49 517.008C913.292 509.47 893.786 505.59 874.088 505.59Z" fill="url(#paint3_linear_83_103)"/>
<path opacity="0.5" d="M665.588 1105.59C665.588 939.904 711.902 805.59 877.588 805.59C711.902 805.59 614.588 939.904 614.588 1105.59V1155.59H665.588V1105.59Z" fill="black"/>
<path d="M574.088 1555.59C601.702 1555.59 624.088 1533.2 624.088 1505.59L624.088 1105.44C624.167 939.825 712.951 805.59 878.588 805.59L574.088 805.59C408.403 805.59 274.088 939.904 274.088 1105.59L274.088 1505.59C274.088 1533.2 296.474 1555.59 324.088 1555.59H574.088Z" fill="url(#paint4_linear_83_103)"/>
<path d="M196.003 1350.49C205.224 1341.29 220.174 1341.29 229.395 1350.49L359.088 1479.93V1513.59H326.032L196.003 1383.82C186.783 1374.61 186.783 1359.69 196.003 1350.49Z" fill="#492990"/>
<path fill-rule="evenodd" clip-rule="evenodd" d="M441.937 1474.72C440.603 1478.22 439.589 1483.99 439.589 1492.53C439.589 1497.2 438.637 1501.99 436.794 1505.76C435.03 1509.36 431.87 1513.03 427.089 1513.03C424.077 1513.03 422.133 1510.78 421.084 1509.17C419.911 1507.36 418.999 1505.06 418.3 1502.74C416.896 1498.08 416.089 1492.49 416.089 1488.53C416.089 1483.05 413.125 1481.24 411.613 1481.15C410.836 1481.1 409.981 1481.37 409.223 1482.3C408.421 1483.29 407.589 1485.2 407.589 1488.53C407.589 1499.89 404.938 1509.03 398.455 1513.73C391.796 1518.56 382.691 1517.61 372.556 1512.67C370.818 1511.83 370.096 1509.73 370.942 1508C371.789 1506.26 373.884 1505.53 375.622 1506.38C384.986 1510.94 390.882 1510.57 394.347 1508.06C397.989 1505.42 400.589 1499.31 400.589 1488.53C400.589 1484.1 401.694 1480.46 403.799 1477.88C405.946 1475.25 408.967 1473.96 412.064 1474.16C418.302 1474.56 423.089 1480.51 423.089 1488.53C423.089 1491.76 423.782 1496.67 425.002 1500.72C425.615 1502.75 426.297 1504.34 426.953 1505.35C427.162 1505.67 427.323 1505.87 427.433 1505.99C428.191 1505.82 429.342 1505.05 430.508 1502.67C431.79 1500.06 432.589 1496.36 432.589 1492.53C432.589 1483.56 433.637 1476.84 435.397 1472.23C437.031 1467.94 439.928 1464.02 444.392 1464.09C446.548 1464.12 448.381 1465.15 449.785 1466.49C451.181 1467.82 452.317 1469.61 453.213 1471.64C455.009 1475.71 456.089 1481.32 456.089 1488.03C456.089 1497.4 458.553 1501.64 460.788 1503.63C463.062 1505.65 465.851 1506.02 468.03 1506.03C468.083 1506.01 468.21 1505.94 468.422 1505.78C468.872 1505.42 469.432 1504.82 470.148 1503.89C470.706 1503.16 471.258 1502.37 471.877 1501.49C472.051 1501.24 472.231 1500.98 472.417 1500.71C473.231 1499.56 474.149 1498.28 475.159 1497.1C477.105 1494.83 479.904 1492.29 483.791 1491.95C487.763 1491.61 491.651 1493.64 495.564 1497.55C499.979 1501.97 506.114 1506.03 518.089 1506.03C520.64 1506.03 522.22 1505.36 523.384 1504.51C524.651 1503.59 525.646 1502.29 526.818 1500.56C526.98 1500.32 527.148 1500.07 527.323 1499.8C529.396 1496.67 532.47 1492.03 539.089 1492.03C541.022 1492.03 542.589 1493.6 542.589 1495.53C542.589 1497.46 541.022 1499.03 539.089 1499.03C536.317 1499.03 535.312 1500.51 532.751 1504.29L532.61 1504.49C531.407 1506.27 529.839 1508.47 527.512 1510.17C525.082 1511.94 522.037 1513.03 518.089 1513.03C504.063 1513.03 496.198 1508.09 490.614 1502.5C487.33 1499.22 485.371 1498.84 484.4 1498.93C483.343 1499.02 482.105 1499.76 480.475 1501.66C479.697 1502.57 478.942 1503.6 478.144 1504.74C477.988 1504.96 477.829 1505.19 477.668 1505.42C477.036 1506.33 476.364 1507.29 475.7 1508.15C474.869 1509.23 473.886 1510.39 472.743 1511.28C471.581 1512.19 470.016 1513.03 468.089 1513.03C465.275 1513.03 460.344 1512.59 456.139 1508.86C451.874 1505.07 449.089 1498.56 449.089 1488.03C449.089 1481.99 448.106 1477.41 446.808 1474.46C446.158 1472.99 445.489 1472.06 444.951 1471.55C444.62 1471.23 444.406 1471.13 444.315 1471.1C444.137 1471.17 443.111 1471.64 441.937 1474.72ZM444.265 1471.09C444.265 1471.09 444.268 1471.09 444.273 1471.09C444.268 1471.09 444.265 1471.09 444.265 1471.09ZM468 1506.04C468 1506.04 468.004 1506.04 468.011 1506.03C468.004 1506.04 468 1506.04 468 1506.04ZM427.602 1506.14C427.602 1506.14 427.596 1506.14 427.582 1506.13C427.596 1506.14 427.602 1506.14 427.602 1506.14Z" fill="#C3CBD6"/>
<rect x="310.088" y="1133.59" width="233" height="15" rx="7.5" fill="#DEE4EB"/>
<rect x="310.088" y="1168.59" width="183" height="15" rx="7.5" fill="#DEE4EB"/>
<rect x="310.088" y="1203.59" width="233" height="15" rx="7.5" fill="#DEE4EB"/>
<rect x="310.088" y="1238.59" width="233" height="15" rx="7.5" fill="#DEE4EB"/>
<rect x="310.088" y="1273.59" width="216" height="15" rx="7.5" fill="#DEE4EB"/>
<rect x="310.088" y="1308.59" width="233" height="15" rx="7.5" fill="#DEE4EB"/>
<rect x="310.088" y="1343.59" width="116" height="15" rx="7.5" fill="#DEE4EB"/>
<defs>
<linearGradient id="paint0_linear_83_103" x1="191.5" y1="191.002" x2="1393.09" y2="1392.59" gradientUnits="userSpaceOnUse">
<stop stop-color="white" stop-opacity="0"/>
<stop offset="1" stop-color="#25127E"/>
</linearGradient>
<linearGradient id="paint1_linear_83_103" x1="1609.88" y1="1208.22" x2="1903.23" y2="1501.86" gradientUnits="userSpaceOnUse">
<stop stop-color="white" stop-opacity="0"/>
<stop offset="1" stop-color="#25127E"/>
</linearGradient>
<linearGradient id="paint2_linear_83_103" x1="1377.06" y1="1489.47" x2="1539.87" y2="1652.43" gradientUnits="userSpaceOnUse">
<stop stop-color="white" stop-opacity="0"/>
<stop offset="1" stop-color="#25127E"/>
</linearGradient>
<linearGradient id="paint3_linear_83_103" x1="274.088" y1="1155.59" x2="1430.09" y2="155.59" gradientUnits="userSpaceOnUse">
<stop stop-color="#25127E"/>
<stop offset="1" stop-color="#BF78CE"/>
</linearGradient>
<linearGradient id="paint4_linear_83_103" x1="576.338" y1="805.59" x2="576.338" y2="1555.59" gradientUnits="userSpaceOnUse">
<stop stop-color="#F8FBFF"/>
<stop offset="1" stop-color="#708EB3"/>
</linearGradient>
</defs>
</svg>
