<svg width="5835" height="1600" viewBox="0 0 5835 1600" fill="none" xmlns="http://www.w3.org/2000/svg">
<g filter="url(#filter0_d_104_172)">
<path d="M785 400H485C319.315 400 185 265.685 185 100C185 72.3858 207.386 50 235 50L785 50C850.661 50 915.679 62.9329 976.342 88.0603C1037 113.188 1092.12 150.017 1138.55 196.447C1184.98 242.876 1221.81 297.996 1246.94 358.658C1272.07 419.321 1285 484.339 1285 550C1285 615.661 1272.07 680.679 1246.94 741.342C1221.81 802.005 1184.98 857.124 1138.55 903.553C1092.12 949.983 1037 986.812 976.342 1011.94C915.679 1037.07 850.661 1050 785 1050H185L185 1000C185 834.315 319.315 700 485 700H785C804.698 700 824.204 696.12 842.402 688.582C860.601 681.044 877.137 669.995 891.066 656.066C904.995 642.137 916.044 625.601 923.582 607.403C931.12 589.204 935 569.698 935 550C935 530.302 931.12 510.796 923.582 492.598C916.044 474.399 904.995 457.863 891.066 443.934C877.137 430.005 860.601 418.956 842.403 411.418C824.204 403.88 804.698 400 785 400Z" fill="url(#paint0_linear_104_172)"/>
<path opacity="0.3" d="M576.5 1000C576.5 834.314 622.814 700 788.5 700C622.814 700 525.5 834.314 525.5 1000V1050H576.5V1000Z" fill="black"/>
<path d="M485 1450C512.614 1450 535 1427.61 535 1400L535 999.854C535.079 834.236 623.863 700 789.5 700L485 700C319.315 700 185 834.315 185 1000L185 1400C185 1427.61 207.386 1450 235 1450H485Z" fill="url(#paint1_linear_104_172)"/>
<path d="M106.916 1244.9C116.136 1235.7 131.086 1235.7 140.307 1244.9L270 1374.34V1408H236.944L106.916 1278.23C97.6948 1269.02 97.6948 1254.1 106.916 1244.9Z" fill="#492990"/>
<path fill-rule="evenodd" clip-rule="evenodd" d="M352.849 1369.13C351.515 1372.63 350.501 1378.4 350.501 1386.94C350.501 1391.61 349.55 1396.41 347.706 1400.17C345.942 1403.77 342.782 1407.44 338.001 1407.44C334.989 1407.44 333.046 1405.19 331.996 1403.58C330.823 1401.77 329.912 1399.47 329.212 1397.15C327.808 1392.49 327.001 1386.9 327.001 1382.94C327.001 1377.46 324.037 1375.65 322.526 1375.56C321.748 1375.51 320.893 1375.78 320.135 1376.71C319.333 1377.7 318.501 1379.61 318.501 1382.94C318.501 1394.3 315.851 1403.44 309.367 1408.14C302.708 1412.97 293.603 1412.02 283.468 1407.08C281.73 1406.24 281.008 1404.14 281.854 1402.41C282.701 1400.67 284.796 1399.95 286.534 1400.79C295.898 1405.35 301.794 1404.98 305.259 1402.47C308.901 1399.83 311.501 1393.72 311.501 1382.94C311.501 1378.51 312.606 1374.87 314.711 1372.29C316.859 1369.66 319.879 1368.37 322.976 1368.57C329.214 1368.97 334.001 1374.92 334.001 1382.94C334.001 1386.17 334.694 1391.08 335.914 1395.13C336.527 1397.16 337.209 1398.75 337.865 1399.76C338.074 1400.08 338.235 1400.28 338.345 1400.4C339.103 1400.23 340.254 1399.46 341.421 1397.09C342.702 1394.47 343.501 1390.77 343.501 1386.94C343.501 1377.98 344.549 1371.25 346.309 1366.64C347.944 1362.35 350.84 1358.43 355.304 1358.5C357.46 1358.53 359.293 1359.56 360.697 1360.9C362.093 1362.23 363.229 1364.02 364.125 1366.05C365.921 1370.12 367.001 1375.73 367.001 1382.44C367.001 1391.81 369.465 1396.05 371.7 1398.04C373.974 1400.06 376.763 1400.43 378.942 1400.44C378.995 1400.42 379.122 1400.35 379.334 1400.19C379.784 1399.83 380.344 1399.23 381.061 1398.3C381.618 1397.57 382.17 1396.78 382.789 1395.9C382.963 1395.65 383.143 1395.39 383.329 1395.12C384.144 1393.97 385.061 1392.69 386.071 1391.51C388.017 1389.24 390.817 1386.7 394.703 1386.36C398.675 1386.02 402.563 1388.05 406.476 1391.96C410.891 1396.38 417.026 1400.44 429.001 1400.44C431.552 1400.44 433.132 1399.77 434.296 1398.92C435.563 1398 436.558 1396.7 437.73 1394.97C437.892 1394.73 438.06 1394.48 438.236 1394.21C440.308 1391.08 443.382 1386.44 450.001 1386.44C451.934 1386.44 453.501 1388.01 453.501 1389.94C453.501 1391.87 451.934 1393.44 450.001 1393.44C447.229 1393.44 446.224 1394.92 443.663 1398.7L443.522 1398.9C442.319 1400.68 440.751 1402.88 438.425 1404.58C435.994 1406.35 432.949 1407.44 429.001 1407.44C414.975 1407.44 407.11 1402.5 401.526 1396.91C398.242 1393.63 396.283 1393.25 395.312 1393.34C394.255 1393.43 393.017 1394.17 391.387 1396.07C390.609 1396.98 389.854 1398.01 389.056 1399.15C388.9 1399.37 388.741 1399.6 388.58 1399.83C387.948 1400.74 387.276 1401.7 386.612 1402.56C385.781 1403.64 384.799 1404.8 383.655 1405.69C382.494 1406.6 380.928 1407.44 379.001 1407.44C376.188 1407.44 371.257 1407 367.051 1403.27C362.787 1399.48 360.001 1392.97 360.001 1382.44C360.001 1376.4 359.018 1371.82 357.72 1368.87C357.07 1367.4 356.401 1366.47 355.863 1365.96C355.532 1365.64 355.318 1365.54 355.227 1365.51C355.049 1365.58 354.024 1366.05 352.849 1369.13ZM355.177 1365.5C355.177 1365.5 355.18 1365.5 355.185 1365.5C355.18 1365.5 355.177 1365.5 355.177 1365.5ZM378.912 1400.45C378.912 1400.45 378.916 1400.45 378.924 1400.45C378.916 1400.45 378.912 1400.45 378.912 1400.45ZM338.514 1400.55C338.514 1400.55 338.508 1400.55 338.495 1400.54C338.508 1400.55 338.514 1400.55 338.514 1400.55Z" fill="#C3CBD6"/>
<rect x="221" y="1028" width="233" height="15" rx="7.5" fill="#DEE4EB"/>
<rect x="221" y="1063" width="183" height="15" rx="7.5" fill="#DEE4EB"/>
<rect x="221" y="1098" width="233" height="15" rx="7.5" fill="#DEE4EB"/>
<rect x="221" y="1133" width="233" height="15" rx="7.5" fill="#DEE4EB"/>
<rect x="221" y="1168" width="216" height="15" rx="7.5" fill="#DEE4EB"/>
<rect x="221" y="1203" width="233" height="15" rx="7.5" fill="#DEE4EB"/>
<rect x="221" y="1238" width="116" height="15" rx="7.5" fill="#DEE4EB"/>
<path d="M1735 1100H2035C2200.69 1100 2335 1234.31 2335 1400C2335 1427.61 2312.61 1450 2285 1450H2035C1869.31 1450 1735 1315.69 1735 1150V1100Z" fill="url(#paint2_linear_104_172)"/>
<path opacity="0.1" d="M1773 1150C1773 1315.69 1868.31 1450 2034 1450C1868.31 1450 1722 1315.69 1722 1150V1100H1773V1150Z" fill="black"/>
<path d="M1435 50C1407.39 50 1385 72.3857 1385 100V1150C1385 1315.69 1519.31 1450 1685 1450H2035C1869.31 1450 1735 1315.69 1735 1150V350C1735 184.315 1600.69 50 1435 50Z" fill="url(#paint3_linear_104_172)"/>
<path d="M2435 100C2435 72.3857 2457.39 50 2485 50C2650.69 50 2785 184.315 2785 350V950C2785 969.698 2788.88 989.204 2796.42 1007.4C2803.96 1025.6 2815.01 1042.14 2828.93 1056.07C2842.86 1069.99 2859.4 1081.04 2877.6 1088.58C2895.8 1096.12 2915.3 1100 2935 1100C2954.7 1100 2974.2 1096.12 2992.4 1088.58C3010.6 1081.04 3027.14 1069.99 3041.07 1056.07C3054.99 1042.14 3066.04 1025.6 3073.58 1007.4C3081.12 989.204 3085 969.698 3085 950V250C3085 222.386 3107.39 200 3135 200C3300.69 200 3435 334.315 3435 500V950C3435 1015.66 3422.07 1080.68 3396.94 1141.34C3371.81 1202 3334.98 1257.12 3288.55 1303.55C3242.12 1349.98 3187 1386.81 3126.34 1411.94C3065.68 1437.07 3000.66 1450 2935 1450C2869.34 1450 2804.32 1437.07 2743.66 1411.94C2683 1386.81 2627.88 1349.98 2581.45 1303.55C2535.02 1257.12 2498.19 1202 2473.06 1141.34C2447.93 1080.68 2435 1015.66 2435 950V100Z" fill="url(#paint4_linear_104_172)"/>
<path opacity="0.1" d="M3094.99 1423.85C3090.7 1422.7 3086.34 1421.52 3083.51 1420.34C3022.85 1395.22 2971.72 1350.17 2925.3 1303.75C2878.87 1257.32 2842.04 1202.2 2816.91 1141.53C2798.94 1098.14 2768.58 992.13 2767 942C2768.26 945.915 2782.42 958.189 2784 962C2793.5 1022 2814.86 1042.33 2828.78 1056.26C2829.34 1056.82 2829.91 1057.37 2830.47 1057.92C2834.1 1087.35 2840.31 1115.94 2850.91 1141.53C2876.04 1202.2 2912.87 1257.32 2959.3 1303.75C3003.65 1348.1 3053.06 1392.61 3110.27 1418.41C3105.2 1420.31 3100.11 1422.12 3094.99 1423.85Z" fill="black"/>
<path d="M2485 50C2457.39 50 2435 72.3857 2435 100V950C2435 1015.66 2447.93 1080.68 2473.06 1141.34C2498.19 1202 2535.02 1257.12 2581.45 1303.55C2627.88 1349.98 2683 1386.81 2743.66 1411.94C2804.32 1437.07 2869.34 1450 2935 1450C2994.8 1450 3054.07 1439.27 3110 1418.38C3104.52 1416.33 3099.07 1414.18 3093.66 1411.94C3033 1386.81 2977.88 1349.98 2931.45 1303.55C2885.02 1257.12 2848.19 1202 2823.06 1141.34C2797.93 1080.68 2785 1015.66 2785 950V350C2785 184.315 2650.69 50 2485 50Z" fill="url(#paint5_linear_104_172)"/>
<path d="M4135 400H3835C3669.31 400 3535 265.685 3535 100C3535 72.3858 3557.39 50 3585 50L4135 50C4200.66 50 4265.68 62.9329 4326.34 88.0603C4387 113.188 4442.12 150.017 4488.55 196.447C4534.98 242.876 4571.81 297.996 4596.94 358.658C4622.07 419.321 4635 484.339 4635 550C4635 615.661 4622.07 680.679 4596.94 741.342C4571.81 802.005 4534.98 857.124 4488.55 903.553C4442.12 949.983 4387 986.812 4326.34 1011.94C4265.68 1037.07 4200.66 1050 4135 1050H3535L3535 1000C3535 834.315 3669.31 700 3835 700H4135C4154.7 700 4174.2 696.12 4192.4 688.582C4210.6 681.044 4227.14 669.995 4241.07 656.066C4254.99 642.137 4266.04 625.601 4273.58 607.403C4281.12 589.204 4285 569.698 4285 550C4285 530.302 4281.12 510.796 4273.58 492.598C4266.04 474.399 4254.99 457.863 4241.07 443.934C4227.14 430.005 4210.6 418.956 4192.4 411.418C4174.2 403.88 4154.7 400 4135 400Z" fill="url(#paint6_linear_104_172)"/>
<path opacity="0.3" d="M3928 1000C3928 834.314 3974.31 700 4140 700C3974.31 700 3877 834.314 3877 1000V1050H3928V1000Z" fill="black"/>
<path d="M4035 1150C4035 1122.39 4057.39 1100 4085 1100H4335C4500.69 1100 4635 1234.31 4635 1400C4635 1427.61 4612.61 1450 4585 1450H4335C4169.31 1450 4035 1315.69 4035 1150Z" fill="url(#paint7_linear_104_172)"/>
<path d="M3835 1450C3862.61 1450 3885 1427.61 3885 1400L3885 999.854C3885.08 834.236 3973.86 700 4139.5 700L3835 700C3669.31 700 3535 834.315 3535 1000L3535 1400C3535 1427.61 3557.39 1450 3585 1450H3835Z" fill="url(#paint8_linear_104_172)"/>
<path d="M4735 350C4735 184.315 4869.31 50 5035 50H5685C5712.61 50 5735 72.3858 5735 100C5735 265.685 5600.69 400 5435 400H4785C4757.39 400 4735 377.614 4735 350Z" fill="url(#paint9_linear_104_172)"/>
<path d="M5735 1400C5735 1234.31 5600.69 1100 5435 1100H4785C4757.39 1100 4735 1122.39 4735 1150C4735 1315.69 4869.31 1450 5035 1450H5685C5712.61 1450 5735 1427.61 5735 1400Z" fill="url(#paint10_linear_104_172)"/>
<path d="M5490 875C5490 709.315 5355.69 575 5190 575H4785C4757.39 575 4735 597.386 4735 625C4735 790.685 4869.31 925 5035 925H5440C5467.61 925 5490 902.614 5490 875Z" fill="url(#paint11_linear_104_172)"/>
</g>
<defs>
<filter id="filter0_d_104_172" x="0" y="0" width="5835" height="1600" filterUnits="userSpaceOnUse" color-interpolation-filters="sRGB">
<feFlood flood-opacity="0" result="BackgroundImageFix"/>
<feColorMatrix in="SourceAlpha" type="matrix" values="0 0 0 0 0 0 0 0 0 0 0 0 0 0 0 0 0 0 127 0" result="hardAlpha"/>
<feOffset dy="50"/>
<feGaussianBlur stdDeviation="50"/>
<feComposite in2="hardAlpha" operator="out"/>
<feColorMatrix type="matrix" values="0 0 0 0 0 0 0 0 0 0 0 0 0 0 0 0 0 0 0.5 0"/>
<feBlend mode="normal" in2="BackgroundImageFix" result="effect1_dropShadow_104_172"/>
<feBlend mode="normal" in="SourceGraphic" in2="effect1_dropShadow_104_172" result="shape"/>
</filter>
<linearGradient id="paint0_linear_104_172" x1="185" y1="1050" x2="1341" y2="50" gradientUnits="userSpaceOnUse">
<stop stop-color="#25127E"/>
<stop offset="1" stop-color="#BF78CE"/>
</linearGradient>
<linearGradient id="paint1_linear_104_172" x1="487.25" y1="700" x2="487.25" y2="1450" gradientUnits="userSpaceOnUse">
<stop stop-color="#F8FBFF"/>
<stop offset="1" stop-color="#708EB3"/>
</linearGradient>
<linearGradient id="paint2_linear_104_172" x1="2035" y1="1100" x2="2035" y2="1450" gradientUnits="userSpaceOnUse">
<stop stop-color="#F8FBFF"/>
<stop offset="1" stop-color="#708EB3"/>
</linearGradient>
<linearGradient id="paint3_linear_104_172" x1="1385" y1="1450" x2="2276.05" y2="862.468" gradientUnits="userSpaceOnUse">
<stop stop-color="#25127E"/>
<stop offset="1" stop-color="#BF78CE"/>
</linearGradient>
<linearGradient id="paint4_linear_104_172" x1="2935" y1="50" x2="2935" y2="1450" gradientUnits="userSpaceOnUse">
<stop stop-color="#F8FBFF"/>
<stop offset="1" stop-color="#708EB3"/>
</linearGradient>
<linearGradient id="paint5_linear_104_172" x1="2435" y1="1450" x2="3338.85" y2="831.108" gradientUnits="userSpaceOnUse">
<stop stop-color="#25127E"/>
<stop offset="1" stop-color="#BF78CE"/>
</linearGradient>
<linearGradient id="paint6_linear_104_172" x1="3535" y1="1050" x2="4691" y2="50" gradientUnits="userSpaceOnUse">
<stop stop-color="#25127E"/>
<stop offset="1" stop-color="#BF78CE"/>
</linearGradient>
<linearGradient id="paint7_linear_104_172" x1="4478.5" y1="1027" x2="4143.5" y2="1480" gradientUnits="userSpaceOnUse">
<stop stop-color="#F8FBFF"/>
<stop offset="1" stop-color="#708EB3"/>
</linearGradient>
<linearGradient id="paint8_linear_104_172" x1="3837.25" y1="700" x2="3837.25" y2="1450" gradientUnits="userSpaceOnUse">
<stop stop-color="#F8FBFF"/>
<stop offset="1" stop-color="#708EB3"/>
</linearGradient>
<linearGradient id="paint9_linear_104_172" x1="4735" y1="400" x2="5038.76" y2="-282.524" gradientUnits="userSpaceOnUse">
<stop stop-color="#25127E"/>
<stop offset="1" stop-color="#BF78CE"/>
</linearGradient>
<linearGradient id="paint10_linear_104_172" x1="4735" y1="1450" x2="5038.76" y2="767.476" gradientUnits="userSpaceOnUse">
<stop stop-color="#25127E"/>
<stop offset="1" stop-color="#BF78CE"/>
</linearGradient>
<linearGradient id="paint11_linear_104_172" x1="5293.07" y1="502" x2="4986.97" y2="1022.85" gradientUnits="userSpaceOnUse">
<stop stop-color="#F8FBFF"/>
<stop offset="1" stop-color="#708EB3"/>
</linearGradient>
</defs>
</svg>
